<svg width="21" height="24" viewBox="0 0 21 24" fill="none" xmlns="http://www.w3.org/2000/svg">
<path d="M10.5022 6C13.4064 5.39999 15.4881 2.9851 15.4592 0C12.555 0.600014 10.4733 3.0149 10.5022 6Z" fill="black"/>
<path d="M19.4633 7.58678C17.6786 8.49059 16.4509 10.3485 16.4509 12.5C16.4509 15.0597 18.0653 17.2047 20.4131 17.8183C19.1694 21.329 16.9897 24 15.459 24C14.1237 24 13.3547 23.6855 12.6761 23.4079L12.6733 23.4067C12.1427 23.189 11.6837 23.001 10.9977 23.001C10.3119 23.001 9.85303 23.1888 9.32266 23.406L9.32213 23.4062L9.32128 23.4066C8.64226 23.6848 7.87307 24 6.53597 24C4.35108 24 0.586975 18.5645 0.586975 13.0005C0.586975 6.19629 5.92693 6 6.53597 6C7.50278 6 8.19264 6.26417 8.8593 6.51952C9.50513 6.76708 10.1151 7.00049 10.9977 7.00049C11.8803 7.00049 12.4903 6.76708 13.1361 6.51952C13.8028 6.26417 14.4927 6 15.4594 6C15.8231 6 17.8702 6.0816 19.4633 7.58678Z" fill="black"/>
</svg>