<?xml version="1.0" encoding="UTF-8"?>
<svg xmlns="http://www.w3.org/2000/svg" xmlns:xlink="http://www.w3.org/1999/xlink" viewBox="0 0 60 60" width="60px" height="60px">
<g id="surface233738841">
<path style=" stroke:none;fill-rule:nonzero;fill:rgb(0%,68.235296%,67.450982%);fill-opacity:1;" d="M 6 14 C 5.277344 13.988281 4.609375 14.367188 4.246094 14.992188 C 3.878906 15.613281 3.878906 16.386719 4.246094 17.007812 C 4.609375 17.632812 5.277344 18.011719 6 18 L 54 18 C 54.722656 18.011719 55.390625 17.632812 55.753906 17.007812 C 56.121094 16.386719 56.121094 15.613281 55.753906 14.992188 C 55.390625 14.367188 54.722656 13.988281 54 14 Z M 6 28 C 5.277344 27.988281 4.609375 28.367188 4.246094 28.992188 C 3.878906 29.613281 3.878906 30.386719 4.246094 31.007812 C 4.609375 31.632812 5.277344 32.011719 6 32 L 54 32 C 54.722656 32.011719 55.390625 31.632812 55.753906 31.007812 C 56.121094 30.386719 56.121094 29.613281 55.753906 28.992188 C 55.390625 28.367188 54.722656 27.988281 54 28 Z M 6 42 C 5.277344 41.988281 4.609375 42.367188 4.246094 42.992188 C 3.878906 43.613281 3.878906 44.386719 4.246094 45.007812 C 4.609375 45.632812 5.277344 46.011719 6 46 L 54 46 C 54.722656 46.011719 55.390625 45.632812 55.753906 45.007812 C 56.121094 44.386719 56.121094 43.613281 55.753906 42.992188 C 55.390625 42.367188 54.722656 41.988281 54 42 Z M 6 42 "/>
</g>
</svg>
